{"asset":{"version":"2.0","generator":"babylon.js glTF exporter for 3dsmax 2019 v1.5.0","extensions":{"ASOBO_normal_map_convention":{"tangent_space_convention":"DirectX"}}},"extensionsUsed":["ASOBO_normal_map_convention"],"scene":0,"scenes":[{"nodes":[0],"extensions":{}}],"nodes":[{"mesh":0,"translation":[-0.000360347331,0.254183382,-0.631366],"rotation":[0.0,0.0,0.0,1.0],"scale":[1.0,1.0,1.0],"name":"Interior"}],"meshes":[{"primitives":[{"attributes":{"POSITION":1,"NORMAL":2,"TEXCOORD_0":3,"TEXCOORD_1":4},"indices":0,"mode":4,"material":0}],"name":"x4_Interior"}],"accessors":[{"bufferView":0,"componentType":5123,"count":384,"type":"SCALAR","name":"accessorIndices"},{"bufferView":1,"componentType":5126,"count":384,"max":[0.5756102,0.6783277,1.821616],"min":[-0.5756103,-0.679974854,-1.84829807],"type":"VEC3","name":"accessorPositions"},{"bufferView":1,"byteOffset":4608,"componentType":5126,"count":384,"type":"VEC3","name":"accessorNormals"},{"bufferView":2,"componentType":5126,"count":384,"type":"VEC2","name":"accessorUVs"},{"bufferView":2,"byteOffset":3072,"componentType":5126,"count":384,"type":"VEC2","name":"accessorUV2s"},{"bufferView":3,"componentType":5126,"count":2,"max":[6.7],"min":[0.0],"type":"SCALAR","name":"accessorAnimationInput"},{"bufferView":4,"componentType":5126,"count":2,"type":"VEC3","name":"accessorAnimationScales"}],"bufferViews":[{"buffer":0,"byteLength":768,"name":"bufferViewScalar"},{"buffer":0,"byteOffset":768,"byteLength":9216,"byteStride":12,"name":"bufferViewFloatVec3"},{"buffer":0,"byteOffset":9984,"byteLength":6144,"byteStride":8,"name":"bufferViewFloatVec2"},{"buffer":0,"byteOffset":16128,"byteLength":8,"name":"bufferViewAnimationFloatScalar"},{"buffer":0,"byteOffset":16136,"byteLength":24,"name":"bufferViewAnimationFloatVec3"}],"buffers":[{"uri":"GaugeAircraft_Interior_LOD04.bin","byteLength":16160}],"materials":[{"pbrMetallicRoughness":{"baseColorTexture":{"index":0},"metallicRoughnessTexture":{"index":1}},"normalTexture":{"index":2},"occlusionTexture":{"index":1},"name":"COCKPIT"}],"textures":[{"source":0,"name":"GaugeAircraft_COCKPIT_albd"},{"source":1,"name":"GaugeAircraft_COCKPIT_comp"},{"source":2,"name":"GaugeAircraft_COCKPIT_norm"}],"images":[{"uri":"GaugeAircraft_COCKPIT_albd.png"},{"uri":"GaugeAircraft_COCKPIT_comp.png"},{"uri":"GaugeAircraft_COCKPIT_norm.png"}],"animations":[{"channels":[{"sampler":0,"target":{"node":0,"path":"scale"}}],"samplers":[{"input":5,"interpolation":"LINEAR","output":6}],"name":"All Animations"}]}