{"asset":{"version":"2.0","generator":"babylon.js glTF exporter for 3dsmax 2019 v1.5.0","extensions":{"ASOBO_normal_map_convention":{"tangent_space_convention":"DirectX"}}},"extensionsUsed":["ASOBO_normal_map_convention"],"scene":0,"scenes":[{"nodes":[0,1],"extensions":{}}],"nodes":[{"mesh":0,"translation":[0.268107,0.232892871,0.629449069],"rotation":[-0.0502717681,0.0,0.0,0.9987356],"scale":[1.0,1.00000012,1.00000012],"name":"pilot"},{"mesh":1,"translation":[-0.000360347331,0.254183382,-0.631366],"rotation":[0.0,0.0,0.0,1.0],"scale":[1.0,1.0,1.0],"name":"Interior"}],"meshes":[{"primitives":[{"attributes":{"POSITION":1,"NORMAL":2,"TEXCOORD_0":3},"indices":0,"mode":4,"material":0},{"attributes":{"POSITION":5,"NORMAL":6,"TEXCOORD_0":7},"indices":4,"mode":4,"material":1},{"attributes":{"POSITION":9,"NORMAL":10,"TEXCOORD_0":11},"indices":8,"mode":4,"material":2},{"attributes":{"POSITION":13,"NORMAL":14,"TEXCOORD_0":15},"indices":12,"mode":4,"material":3},{"attributes":{"POSITION":17,"NORMAL":18,"TEXCOORD_0":19},"indices":16,"mode":4,"material":4},{"attributes":{"POSITION":21,"NORMAL":22,"TEXCOORD_0":23},"indices":20,"mode":4,"material":5},{"attributes":{"POSITION":25,"NORMAL":26,"TEXCOORD_0":27},"indices":24,"mode":4,"material":6},{"attributes":{"POSITION":29,"NORMAL":30,"TEXCOORD_0":31},"indices":28,"mode":4,"material":7}],"name":"x2_pilot"},{"primitives":[{"attributes":{"POSITION":33,"NORMAL":34,"TEXCOORD_0":35,"TEXCOORD_1":36},"indices":32,"mode":4,"material":8}],"name":"x2_Interior"}],"accessors":[{"bufferView":0,"componentType":5123,"count":1269,"type":"SCALAR","name":"accessorIndices"},{"bufferView":1,"componentType":5126,"count":350,"max":[0.286221772,0.35861963,0.0172436237],"min":[-0.3153381,-0.360990733,-0.6391953],"type":"VEC3","name":"accessorPositions"},{"bufferView":1,"byteOffset":4200,"componentType":5126,"count":350,"type":"VEC3","name":"accessorNormals"},{"bufferView":2,"componentType":5126,"count":350,"type":"VEC2","name":"accessorUVs"},{"bufferView":0,"byteOffset":2540,"componentType":5123,"count":216,"type":"SCALAR","name":"accessorIndices"},{"bufferView":1,"byteOffset":8400,"componentType":5126,"count":83,"max":[0.09089959,0.5935977,-0.228520632],"min":[-0.0924993455,0.44020915,-0.546834469],"type":"VEC3","name":"accessorPositions"},{"bufferView":1,"byteOffset":9396,"componentType":5126,"count":83,"type":"VEC3","name":"accessorNormals"},{"bufferView":2,"byteOffset":2800,"componentType":5126,"count":83,"type":"VEC2","name":"accessorUVs"},{"bufferView":0,"byteOffset":2972,"componentType":5123,"count":333,"type":"SCALAR","name":"accessorIndices"},{"bufferView":1,"byteOffset":10392,"componentType":5126,"count":76,"max":[0.109033555,0.5758467,-0.289201736],"min":[-0.09991014,0.13085103,-0.558761358],"type":"VEC3","name":"accessorPositions"},{"bufferView":1,"byteOffset":11304,"componentType":5126,"count":76,"type":"VEC3","name":"accessorNormals"},{"bufferView":2,"byteOffset":3464,"componentType":5126,"count":76,"type":"VEC2","name":"accessorUVs"},{"bufferView":0,"byteOffset":3640,"componentType":5123,"count":36,"type":"SCALAR","name":"accessorIndices"},{"bufferView":1,"byteOffset":12216,"componentType":5126,"count":11,"max":[0.0428001881,0.460759223,-0.323921919],"min":[-0.0366159976,0.436280549,-0.3508289],"type":"VEC3","name":"accessorPositions"},{"bufferView":1,"byteOffset":12348,"componentType":5126,"count":11,"type":"VEC3","name":"accessorNormals"},{"bufferView":2,"byteOffset":4072,"componentType":5126,"count":11,"type":"VEC2","name":"accessorUVs"},{"bufferView":0,"byteOffset":3712,"componentType":5123,"count":12,"type":"SCALAR","name":"accessorIndices"},{"bufferView":1,"byteOffset":12480,"componentType":5126,"count":12,"max":[0.0867704153,0.505370259,-0.3443241],"min":[-0.068252,0.421782076,-0.541417241],"type":"VEC3","name":"accessorPositions"},{"bufferView":1,"byteOffset":12624,"componentType":5126,"count":12,"type":"VEC3","name":"accessorNormals"},{"bufferView":2,"byteOffset":4160,"componentType":5126,"count":12,"type":"VEC2","name":"accessorUVs"},{"bufferView":0,"byteOffset":3736,"componentType":5123,"count":408,"type":"SCALAR","name":"accessorIndices"},{"bufferView":1,"byteOffset":12768,"componentType":5126,"count":234,"max":[0.216507286,0.0762033761,0.127159357],"min":[-0.22752817,-0.03572169,-0.05650568],"type":"VEC3","name":"accessorPositions"},{"bufferView":1,"byteOffset":15576,"componentType":5126,"count":234,"type":"VEC3","name":"accessorNormals"},{"bufferView":2,"byteOffset":4256,"componentType":5126,"count":234,"type":"VEC2","name":"accessorUVs"},{"bufferView":0,"byteOffset":4552,"componentType":5123,"count":246,"type":"SCALAR","name":"accessorIndices"},{"bufferView":1,"byteOffset":18384,"componentType":5126,"count":80,"max":[0.1287103,0.6062469,-0.26305294],"min":[-0.1269955,0.321718037,-0.480026245],"type":"VEC3","name":"accessorPositions"},{"bufferView":1,"byteOffset":19344,"componentType":5126,"count":80,"type":"VEC3","name":"accessorNormals"},{"bufferView":2,"byteOffset":6128,"componentType":5126,"count":80,"type":"VEC2","name":"accessorUVs"},{"bufferView":0,"byteOffset":5044,"componentType":5123,"count":114,"type":"SCALAR","name":"accessorIndices"},{"bufferView":1,"byteOffset":20304,"componentType":5126,"count":41,"max":[0.191344708,-0.200689077,-0.226096392],"min":[-0.1543974,-0.4635036,-0.548012853],"type":"VEC3","name":"accessorPositions"},{"bufferView":1,"byteOffset":20796,"componentType":5126,"count":41,"type":"VEC3","name":"accessorNormals"},{"bufferView":2,"byteOffset":6768,"componentType":5126,"count":41,"type":"VEC2","name":"accessorUVs"},{"bufferView":0,"byteOffset":5272,"componentType":5123,"count":3150,"type":"SCALAR","name":"accessorIndices"},{"bufferView":1,"byteOffset":21288,"componentType":5126,"count":3150,"max":[0.59132576,0.6836878,1.847205],"min":[-0.5913258,-0.679974854,-1.84829807],"type":"VEC3","name":"accessorPositions"},{"bufferView":1,"byteOffset":59088,"componentType":5126,"count":3150,"type":"VEC3","name":"accessorNormals"},{"bufferView":2,"byteOffset":7096,"componentType":5126,"count":3150,"type":"VEC2","name":"accessorUVs"},{"bufferView":2,"byteOffset":32296,"componentType":5126,"count":3150,"type":"VEC2","name":"accessorUV2s"},{"bufferView":3,"componentType":5126,"count":2,"max":[6.7],"min":[0.0],"type":"SCALAR","name":"accessorAnimationInput"},{"bufferView":4,"componentType":5126,"count":2,"type":"VEC3","name":"accessorAnimationScales"},{"bufferView":3,"byteOffset":8,"componentType":5126,"count":2,"max":[6.7],"min":[0.0],"type":"SCALAR","name":"accessorAnimationInput"},{"bufferView":4,"byteOffset":24,"componentType":5126,"count":2,"type":"VEC3","name":"accessorAnimationScales"}],"bufferViews":[{"buffer":0,"byteLength":11572,"name":"bufferViewScalar"},{"buffer":0,"byteOffset":11572,"byteLength":96888,"byteStride":12,"name":"bufferViewFloatVec3"},{"buffer":0,"byteOffset":108460,"byteLength":57496,"byteStride":8,"name":"bufferViewFloatVec2"},{"buffer":0,"byteOffset":165956,"byteLength":16,"name":"bufferViewAnimationFloatScalar"},{"buffer":0,"byteOffset":165972,"byteLength":48,"name":"bufferViewAnimationFloatVec3"}],"buffers":[{"uri":"GaugeAircraft_Interior_LOD02.bin","byteLength":166020}],"materials":[{"pbrMetallicRoughness":{"baseColorTexture":{"index":0},"metallicRoughnessTexture":{"index":1}},"normalTexture":{"index":2},"occlusionTexture":{"index":1},"name":"Jacket"},{"pbrMetallicRoughness":{"baseColorTexture":{"index":3},"metallicRoughnessTexture":{"index":4}},"normalTexture":{"index":5},"occlusionTexture":{"index":4},"name":"Cap"},{"pbrMetallicRoughness":{"baseColorTexture":{"index":6},"metallicRoughnessTexture":{"index":7}},"normalTexture":{"index":8},"occlusionTexture":{"index":7},"name":"Head"},{"pbrMetallicRoughness":{"baseColorTexture":{"index":9},"metallicRoughnessTexture":{"index":10}},"normalTexture":{"index":11},"occlusionTexture":{"index":10},"name":"Eye"},{"pbrMetallicRoughness":{"baseColorTexture":{"index":12},"metallicRoughnessTexture":{"index":13}},"normalTexture":{"index":14},"occlusionTexture":{"index":13},"alphaMode":"BLEND","doubleSided":true,"name":"Hair"},{"pbrMetallicRoughness":{"baseColorTexture":{"index":15},"metallicRoughnessTexture":{"index":16}},"normalTexture":{"index":17},"occlusionTexture":{"index":16},"name":"Arms_Caucasian"},{"pbrMetallicRoughness":{"baseColorTexture":{"index":18},"metallicRoughnessTexture":{"index":19}},"normalTexture":{"index":20},"occlusionTexture":{"index":19},"name":"CASQUE"},{"pbrMetallicRoughness":{"baseColorTexture":{"index":21},"metallicRoughnessTexture":{"index":22}},"normalTexture":{"index":23},"occlusionTexture":{"index":22},"name":"Pants"},{"pbrMetallicRoughness":{"baseColorTexture":{"index":24},"metallicRoughnessTexture":{"index":25}},"normalTexture":{"index":26},"occlusionTexture":{"index":25},"name":"COCKPIT"}],"textures":[{"source":0,"name":"Pilot_JACKET_albd"},{"source":1,"name":"Pilot_JACKET_comp"},{"source":2,"name":"Pilot_JACKET_norm"},{"source":3,"name":"Pilot_CAP_albd"},{"source":4,"name":"Pilot_CAP_comp"},{"source":5,"name":"Pilot_CAP_norm"},{"source":6,"name":"Pilot_HEAD_albd"},{"source":7,"name":"Pilot_HEAD_comp"},{"source":8,"name":"Pilot_HEAD_norm"},{"source":9,"name":"Pilot_EYES_albd"},{"source":10,"name":"Pilot_EYES_comp"},{"source":11,"name":"Pilot_EYES_norm"},{"source":12,"name":"Pilot_HAIRCARDS_albd"},{"source":13,"name":"Pilot_HAIRCARDS_comp"},{"source":14,"name":"Pilot_HAIRCARDS_norm"},{"source":15,"name":"Pilot_ARMS_albd"},{"source":16,"name":"Pilot_ARMS_comp"},{"source":17,"name":"Pilot_ARMS_norm"},{"source":18,"name":"Pilot_HEADSET_albd"},{"source":19,"name":"Pilot_HEADSET_comp"},{"source":20,"name":"Pilot_HEADSET_norm"},{"source":21,"name":"Pilot_PANTS_albd"},{"source":22,"name":"Pilot_PANTS_comp"},{"source":23,"name":"Pilot_PANTS_norm"},{"source":24,"name":"GaugeAircraft_COCKPIT_albd"},{"source":25,"name":"GaugeAircraft_COCKPIT_comp"},{"source":26,"name":"GaugeAircraft_COCKPIT_norm"}],"images":[{"uri":"Pilot_JACKET_albd.png"},{"uri":"Pilot_JACKET_comp.png"},{"uri":"Pilot_JACKET_norm.png"},{"uri":"Pilot_CAP_albd.png"},{"uri":"Pilot_CAP_comp.png"},{"uri":"Pilot_CAP_norm.png"},{"uri":"Pilot_HEAD_albd.png"},{"uri":"Pilot_HEAD_comp.png"},{"uri":"Pilot_HEAD_norm.png"},{"uri":"Pilot_EYES_albd.png"},{"uri":"Pilot_EYES_comp.png"},{"uri":"Pilot_EYES_norm.png"},{"uri":"Pilot_HAIRCARDS_albd.png"},{"uri":"Pilot_HAIRCARDS_comp.png"},{"uri":"Pilot_HAIRCARDS_norm.png"},{"uri":"Pilot_ARMS_albd.png"},{"uri":"Pilot_ARMS_comp.png"},{"uri":"Pilot_ARMS_norm.png"},{"uri":"Pilot_HEADSET_albd.png"},{"uri":"Pilot_HEADSET_comp.png"},{"uri":"Pilot_HEADSET_norm.png"},{"uri":"Pilot_PANTS_albd.png"},{"uri":"Pilot_PANTS_comp.png"},{"uri":"Pilot_PANTS_norm.png"},{"uri":"GaugeAircraft_COCKPIT_albd.png"},{"uri":"GaugeAircraft_COCKPIT_comp.png"},{"uri":"GaugeAircraft_COCKPIT_norm.png"}],"animations":[{"channels":[{"sampler":0,"target":{"node":0,"path":"scale"}},{"sampler":1,"target":{"node":1,"path":"scale"}}],"samplers":[{"input":37,"interpolation":"LINEAR","output":38},{"input":39,"interpolation":"LINEAR","output":40}],"name":"All Animations"}]}