{"asset":{"version":"2.0","generator":"babylon.js glTF exporter for 3dsmax 2019 v1.5.0","extensions":{"ASOBO_normal_map_convention":{"tanget_space_convention":"DirectX"}}},"extensionsUsed":["ASOBO_normal_map_convention"],"scene":0,"scenes":[{"nodes":[0,1,3,4,7,9,10,11,13,15,16,17,18,19,20,21,22,23],"extensions":{}}],"nodes":[{"translation":[-0.148552686,-0.638298452,1.70330489],"rotation":[-0.04316777,-0.0431677923,-0.705787957,0.7057879],"scale":[0.8516799,0.8516799,0.85168004],"name":"skel_Door_Right"},{"children":[2],"translation":[-2.50825,-0.3750725,-0.32550323],"rotation":[0.0,0.0,0.0,1.0],"scale":[0.8516799,0.8516799,0.8516799],"name":"skel_LandingGear_Right"},{"translation":[0.200982571,-0.8224429,-0.000480681658],"rotation":[7.04569666E-23,2.95517937E-16,2.38418579E-07,1.0],"scale":[0.999999762,0.999999762,1.0],"name":"skel_Tire_Right"},{"translation":[-0.000241508707,0.125090942,2.462843],"rotation":[0.0,0.0,0.0,1.0],"scale":[0.8516799,0.8516799,0.8516799],"name":"skel_Propeller"},{"children":[5],"translation":[-0.000360347331,-0.484803259,2.10171866],"rotation":[-0.156434536,0.0,0.0,0.987688363],"scale":[0.8516799,0.8516799,0.8516799],"name":"skel_LandingGear_Front"},{"children":[6],"translation":[0.0,-0.363004327,0.00337338448],"rotation":[1.4901163E-08,0.0,0.0,1.0],"scale":[1.0,0.99999994,0.99999994],"name":"skel_Steering"},{"translation":[0.0,-0.491574764,-0.001471281],"rotation":[1.4901163E-08,0.0,0.0,1.0],"scale":[1.0,0.9999999,0.9999999],"name":"skel_Tire_Front"},{"children":[8],"translation":[2.5075295,-0.3750725,-0.32550323],"rotation":[0.0,0.0,0.0,1.0],"scale":[0.8516799,0.8516799,0.8516799],"name":"skel_LandingGear_Left"},{"translation":[-0.224040747,-0.8224422,-0.000480681658],"rotation":[0.0,0.0,0.0,1.0],"scale":[1.0,1.0,1.0],"name":"skel_Tire_Left"},{"translation":[3.76184678,-0.126496449,-0.5447824],"rotation":[-0.006155827,-0.0782172754,0.07821727,0.993844151],"scale":[0.8516793,0.8516795,0.8516796],"name":"skel_Aileron_Left"},{"translation":[1.60528517,-0.369785726,-0.8892549],"rotation":[-0.00683816243,-0.0868870541,0.07816056,0.9931238],"scale":[0.8516797,0.851679444,0.851679444],"name":"skel_Flap_Left"},{"children":[12],"translation":[-0.000360347331,0.0974172056,-5.167411],"rotation":[0.0,-0.008726487,0.0,0.9999619],"scale":[0.8516799,0.8516799,0.8516799],"name":"skel_Elevator"},{"mesh":0,"translation":[-0.00259709358,0.004365295,-0.1683445],"rotation":[0.0,0.008726487,0.0,0.9999619],"scale":[1.17415,1.17415,1.17415],"name":"Elevator"},{"children":[14],"translation":[-0.000360347331,0.832625031,-5.16301775],"rotation":[0.0,0.0,0.0,1.0],"scale":[0.8516799,0.8516799,0.8516799],"name":"skel_Rudder"},{"mesh":1,"translation":[0.00653344346,-0.0215024352,-0.124708176],"rotation":[0.0,-0.130526155,0.0,0.9914449],"scale":[1.17414987,1.17415,1.17414987],"name":"Rudder"},{"translation":[-3.78129935,-0.140829176,-0.5401641],"rotation":[-0.0552492552,0.08236739,-0.06463356,0.9929681],"scale":[0.851679742,0.8516797,0.8516798],"name":"skel_Aileron_Right"},{"translation":[-1.68345428,-0.379083276,-0.8961377],"rotation":[-0.020048961,0.07739125,-0.0855114162,0.9931246],"scale":[0.8516795,0.85168004,0.8516796],"name":"skel_Flap_Right"},{"translation":[0.147574052,-0.638298452,1.70330513],"rotation":[-0.06104848,1.98569463E-08,-1.11746679E-07,0.998134851],"scale":[0.8516801,0.8516803,0.8516803],"name":"skel_Door_Left"},{"mesh":2,"translation":[-0.000241711736,0.4156414,-1.707963],"rotation":[0.0,0.0,0.0,1.0],"scale":[1.0,1.0,1.0],"name":"Fuselage"},{"mesh":3,"translation":[2.92124081,-0.2421754,0.03492725],"rotation":[0.0,0.0,0.0,1.0],"scale":[1.0,1.0,1.0],"name":"Wing_Left"},{"mesh":4,"translation":[-2.90425,-0.2421754,0.03492737],"rotation":[0.0,0.0,0.0,1.0],"scale":[1.0,1.0,1.0],"name":"Wing_Right"},{"mesh":5,"translation":[0.00100642443,0.6930892,-1.132243],"rotation":[0.0,0.0,0.0,1.0],"scale":[1.0,1.0,1.0],"name":"Windshield"},{"mesh":6,"translation":[-0.000283592381,0.438766032,-0.698977],"rotation":[0.0,0.0,0.0,1.0],"scale":[1.0,1.0,1.0],"name":"Glass"},{"translation":[0.0,0.0,0.0],"rotation":[0.0,0.0,0.0,1.0],"scale":[1.0,1.0,1.0],"name":"Default light"}],"meshes":[{"primitives":[{"attributes":{"POSITION":1,"NORMAL":2,"TEXCOORD_0":3,"TEXCOORD_1":4},"indices":0,"mode":4,"material":0}],"name":"x4_Elevator"},{"primitives":[{"attributes":{"POSITION":6,"NORMAL":7,"TEXCOORD_0":8,"TEXCOORD_1":9},"indices":5,"mode":4,"material":1}],"name":"x4_Rudder"},{"primitives":[{"attributes":{"POSITION":11,"NORMAL":12,"TEXCOORD_0":13,"TEXCOORD_1":14},"indices":10,"mode":4,"material":1}],"name":"x4_Fuselage"},{"primitives":[{"attributes":{"POSITION":16,"NORMAL":17,"TEXCOORD_0":18,"TEXCOORD_1":19},"indices":15,"mode":4,"material":0}],"name":"x4_Wing_Left"},{"primitives":[{"attributes":{"POSITION":21,"NORMAL":22,"TEXCOORD_0":23,"TEXCOORD_1":24},"indices":20,"mode":4,"material":0}],"name":"x4_Wing_Right"},{"primitives":[{"attributes":{"POSITION":26,"NORMAL":27,"TEXCOORD_0":28,"TEXCOORD_1":29},"indices":25,"mode":4,"material":2}],"name":"x4_Windshield"},{"primitives":[{"attributes":{"POSITION":31,"NORMAL":32,"TEXCOORD_0":33,"TEXCOORD_1":34},"indices":30,"mode":4,"material":2}],"name":"x4_Glass"}],"accessors":[{"bufferView":0,"componentType":5123,"count":96,"type":"SCALAR","name":"accessorIndices"},{"bufferView":1,"componentType":5126,"count":96,"max":[1.61183846,0.0151300821,0.149940982],"min":[-1.6063782,-0.023107402,-0.438139945],"type":"VEC3","name":"accessorPositions"},{"bufferView":1,"byteOffset":1152,"componentType":5126,"count":96,"type":"VEC3","name":"accessorNormals"},{"bufferView":2,"componentType":5126,"count":96,"type":"VEC2","name":"accessorUVs"},{"bufferView":2,"byteOffset":768,"componentType":5126,"count":96,"type":"VEC2","name":"accessorUV2s"},{"bufferView":0,"byteOffset":192,"componentType":5123,"count":48,"type":"SCALAR","name":"accessorIndices"},{"bufferView":1,"byteOffset":2304,"componentType":5126,"count":48,"max":[0.150166184,0.654812336,0.5023406],"min":[-0.1545587,-0.664896548,-0.494344831],"type":"VEC3","name":"accessorPositions"},{"bufferView":1,"byteOffset":2880,"componentType":5126,"count":48,"type":"VEC3","name":"accessorNormals"},{"bufferView":2,"byteOffset":1536,"componentType":5126,"count":48,"type":"VEC2","name":"accessorUVs"},{"bufferView":2,"byteOffset":1920,"componentType":5126,"count":48,"type":"VEC2","name":"accessorUV2s"},{"bufferView":0,"byteOffset":288,"componentType":5123,"count":963,"type":"SCALAR","name":"accessorIndices"},{"bufferView":1,"byteOffset":3456,"componentType":5126,"count":963,"max":[1.60182011,1.08310533,4.1576004],"min":[-1.601759,-1.1350553,-4.16202164],"type":"VEC3","name":"accessorPositions"},{"bufferView":1,"byteOffset":15012,"componentType":5126,"count":963,"type":"VEC3","name":"accessorNormals"},{"bufferView":2,"byteOffset":2304,"componentType":5126,"count":963,"type":"VEC2","name":"accessorUVs"},{"bufferView":2,"byteOffset":10008,"componentType":5126,"count":963,"type":"VEC2","name":"accessorUV2s"},{"bufferView":0,"byteOffset":2216,"componentType":5123,"count":132,"type":"SCALAR","name":"accessorIndices"},{"bufferView":1,"byteOffset":26568,"componentType":5126,"count":132,"max":[2.202492,0.345274329,1.02550936],"min":[-2.21195126,-0.348086774,-1.02408445],"type":"VEC3","name":"accessorPositions"},{"bufferView":1,"byteOffset":28152,"componentType":5126,"count":132,"type":"VEC3","name":"accessorNormals"},{"bufferView":2,"byteOffset":17712,"componentType":5126,"count":132,"type":"VEC2","name":"accessorUVs"},{"bufferView":2,"byteOffset":18768,"componentType":5126,"count":132,"type":"VEC2","name":"accessorUV2s"},{"bufferView":0,"byteOffset":2480,"componentType":5123,"count":132,"type":"SCALAR","name":"accessorIndices"},{"bufferView":1,"byteOffset":29736,"componentType":5126,"count":132,"max":[2.19423962,0.345274329,1.02550936],"min":[-2.2202034,-0.348086774,-1.02408445],"type":"VEC3","name":"accessorPositions"},{"bufferView":1,"byteOffset":31320,"componentType":5126,"count":132,"type":"VEC3","name":"accessorNormals"},{"bufferView":2,"byteOffset":19824,"componentType":5126,"count":132,"type":"VEC2","name":"accessorUVs"},{"bufferView":2,"byteOffset":20880,"componentType":5126,"count":132,"type":"VEC2","name":"accessorUV2s"},{"bufferView":0,"byteOffset":2744,"componentType":5123,"count":48,"type":"SCALAR","name":"accessorIndices"},{"bufferView":1,"byteOffset":32904,"componentType":5126,"count":48,"max":[0.5747054,0.2638231,2.284303],"min":[-0.54907155,-0.446458519,1.3717134],"type":"VEC3","name":"accessorPositions"},{"bufferView":1,"byteOffset":33480,"componentType":5126,"count":48,"type":"VEC3","name":"accessorNormals"},{"bufferView":2,"byteOffset":21936,"componentType":5126,"count":48,"type":"VEC2","name":"accessorUVs"},{"bufferView":2,"byteOffset":22320,"componentType":5126,"count":48,"type":"VEC2","name":"accessorUV2s"},{"bufferView":0,"byteOffset":2840,"componentType":5123,"count":36,"type":"SCALAR","name":"accessorIndices"},{"bufferView":1,"byteOffset":34056,"componentType":5126,"count":36,"max":[0.615190744,0.424309582,1.45644164],"min":[-0.6151908,-0.230700046,-1.45387161],"type":"VEC3","name":"accessorPositions"},{"bufferView":1,"byteOffset":34488,"componentType":5126,"count":36,"type":"VEC3","name":"accessorNormals"},{"bufferView":2,"byteOffset":22704,"componentType":5126,"count":36,"type":"VEC2","name":"accessorUVs"},{"bufferView":2,"byteOffset":22992,"componentType":5126,"count":36,"type":"VEC2","name":"accessorUV2s"},{"bufferView":3,"componentType":5126,"count":201,"max":[6.66666651],"min":[0.0],"type":"SCALAR","name":"accessorAnimationInput"},{"bufferView":4,"componentType":5126,"count":201,"type":"VEC3","name":"accessorAnimationPositions"},{"bufferView":3,"byteOffset":804,"componentType":5126,"count":201,"max":[6.66666651],"min":[0.0],"type":"SCALAR","name":"accessorAnimationInput"},{"bufferView":5,"componentType":5126,"count":201,"type":"VEC4","name":"accessorAnimationRotations"},{"bufferView":3,"byteOffset":1608,"componentType":5126,"count":201,"max":[6.66666651],"min":[0.0],"type":"SCALAR","name":"accessorAnimationInput"},{"bufferView":4,"byteOffset":2412,"componentType":5126,"count":201,"type":"VEC3","name":"accessorAnimationScales"},{"bufferView":3,"byteOffset":2412,"componentType":5126,"count":201,"max":[6.66666651],"min":[0.0],"type":"SCALAR","name":"accessorAnimationInput"},{"bufferView":5,"byteOffset":3216,"componentType":5126,"count":201,"type":"VEC4","name":"accessorAnimationRotations"},{"bufferView":3,"byteOffset":3216,"componentType":5126,"count":201,"max":[6.66666651],"min":[0.0],"type":"SCALAR","name":"accessorAnimationInput"},{"bufferView":5,"byteOffset":6432,"componentType":5126,"count":201,"type":"VEC4","name":"accessorAnimationRotations"},{"bufferView":3,"byteOffset":4020,"componentType":5126,"count":5,"max":[0.13333334],"min":[0.0],"type":"SCALAR","name":"accessorAnimationInput"},{"bufferView":5,"byteOffset":9648,"componentType":5126,"count":5,"type":"VEC4","name":"accessorAnimationRotations"},{"bufferView":3,"byteOffset":4040,"componentType":5126,"count":5,"max":[0.13333334],"min":[0.0],"type":"SCALAR","name":"accessorAnimationInput"},{"bufferView":5,"byteOffset":9728,"componentType":5126,"count":5,"type":"VEC4","name":"accessorAnimationRotations"},{"bufferView":3,"byteOffset":4060,"componentType":5126,"count":3,"max":[0.06666667],"min":[0.0],"type":"SCALAR","name":"accessorAnimationInput"},{"bufferView":5,"byteOffset":9808,"componentType":5126,"count":3,"type":"VEC4","name":"accessorAnimationRotations"},{"bufferView":3,"byteOffset":4072,"componentType":5126,"count":3,"max":[0.06666667],"min":[0.0],"type":"SCALAR","name":"accessorAnimationInput"},{"bufferView":5,"byteOffset":9856,"componentType":5126,"count":3,"type":"VEC4","name":"accessorAnimationRotations"},{"bufferView":3,"byteOffset":4084,"componentType":5126,"count":2,"max":[0.0333333351],"min":[0.0],"type":"SCALAR","name":"accessorAnimationInput"},{"bufferView":4,"byteOffset":4824,"componentType":5126,"count":2,"type":"VEC3","name":"accessorAnimationPositions"},{"bufferView":3,"byteOffset":4092,"componentType":5126,"count":2,"max":[0.0333333351],"min":[0.0],"type":"SCALAR","name":"accessorAnimationInput"},{"bufferView":5,"byteOffset":9904,"componentType":5126,"count":2,"type":"VEC4","name":"accessorAnimationRotations"},{"bufferView":3,"byteOffset":4100,"componentType":5126,"count":201,"max":[6.66666651],"min":[0.0],"type":"SCALAR","name":"accessorAnimationInput"},{"bufferView":5,"byteOffset":9936,"componentType":5126,"count":201,"type":"VEC4","name":"accessorAnimationRotations"},{"bufferView":3,"byteOffset":4904,"componentType":5126,"count":5,"max":[0.13333334],"min":[0.0],"type":"SCALAR","name":"accessorAnimationInput"},{"bufferView":5,"byteOffset":13152,"componentType":5126,"count":5,"type":"VEC4","name":"accessorAnimationRotations"},{"bufferView":3,"byteOffset":4924,"componentType":5126,"count":5,"max":[0.13333334],"min":[0.0],"type":"SCALAR","name":"accessorAnimationInput"},{"bufferView":5,"byteOffset":13232,"componentType":5126,"count":5,"type":"VEC4","name":"accessorAnimationRotations"},{"bufferView":3,"byteOffset":4944,"componentType":5126,"count":3,"max":[0.06666667],"min":[0.0],"type":"SCALAR","name":"accessorAnimationInput"},{"bufferView":5,"byteOffset":13312,"componentType":5126,"count":3,"type":"VEC4","name":"accessorAnimationRotations"},{"bufferView":3,"byteOffset":4956,"componentType":5126,"count":2,"max":[0.0333333351],"min":[0.0],"type":"SCALAR","name":"accessorAnimationInput"},{"bufferView":4,"byteOffset":4848,"componentType":5126,"count":2,"type":"VEC3","name":"accessorAnimationPositions"},{"bufferView":3,"byteOffset":4964,"componentType":5126,"count":2,"max":[0.0333333351],"min":[0.0],"type":"SCALAR","name":"accessorAnimationInput"},{"bufferView":5,"byteOffset":13360,"componentType":5126,"count":2,"type":"VEC4","name":"accessorAnimationRotations"},{"bufferView":3,"byteOffset":4972,"componentType":5126,"count":201,"max":[6.66666651],"min":[0.0],"type":"SCALAR","name":"accessorAnimationInput"},{"bufferView":4,"byteOffset":4872,"componentType":5126,"count":201,"type":"VEC3","name":"accessorAnimationPositions"},{"bufferView":3,"byteOffset":5776,"componentType":5126,"count":201,"max":[6.66666651],"min":[0.0],"type":"SCALAR","name":"accessorAnimationInput"},{"bufferView":5,"byteOffset":13392,"componentType":5126,"count":201,"type":"VEC4","name":"accessorAnimationRotations"},{"bufferView":3,"byteOffset":6580,"componentType":5126,"count":201,"max":[6.66666651],"min":[0.0],"type":"SCALAR","name":"accessorAnimationInput"},{"bufferView":4,"byteOffset":7284,"componentType":5126,"count":201,"type":"VEC3","name":"accessorAnimationScales"},{"bufferView":3,"byteOffset":7384,"componentType":5126,"count":5,"max":[0.13333334],"min":[0.0],"type":"SCALAR","name":"accessorAnimationInput"},{"bufferView":5,"byteOffset":16608,"componentType":5126,"count":5,"type":"VEC4","name":"accessorAnimationRotations"},{"bufferView":3,"byteOffset":7404,"componentType":5126,"count":3,"max":[0.06666667],"min":[0.0],"type":"SCALAR","name":"accessorAnimationInput"},{"bufferView":5,"byteOffset":16688,"componentType":5126,"count":3,"type":"VEC4","name":"accessorAnimationRotations"}],"bufferViews":[{"buffer":0,"byteLength":2912,"name":"bufferViewScalar"},{"buffer":0,"byteOffset":2912,"byteLength":34920,"byteStride":12,"name":"bufferViewFloatVec3"},{"buffer":0,"byteOffset":37832,"byteLength":23280,"byteStride":8,"name":"bufferViewFloatVec2"},{"buffer":0,"byteOffset":61112,"byteLength":7416,"name":"bufferViewAnimationFloatScalar"},{"buffer":0,"byteOffset":68528,"byteLength":9696,"name":"bufferViewAnimationFloatVec3"},{"buffer":0,"byteOffset":78224,"byteLength":16736,"name":"bufferViewAnimationFloatVec4"}],"buffers":[{"uri":"GaugeAircraft_LOD04.bin","byteLength":94960}],"materials":[{"pbrMetallicRoughness":{"baseColorTexture":{"index":0},"metallicRoughnessTexture":{"index":1}},"normalTexture":{"index":2},"occlusionTexture":{"index":1},"name":"WINGS"},{"pbrMetallicRoughness":{"baseColorTexture":{"index":3},"metallicRoughnessTexture":{"index":4}},"normalTexture":{"index":5},"occlusionTexture":{"index":4},"name":"FUSELAGE"},{"pbrMetallicRoughness":{"baseColorFactor":[1.0,1.0,1.0,0.01],"metallicFactor":0.0,"roughnessFactor":0.1},"normalTexture":{"index":6},"alphaMode":"BLEND","name":"GLASS","extras":{"ASOBO_material_code":"Windshield"}}],"textures":[{"source":0,"name":"GaugeAircraft_WINGS_albd_000"},{"source":1,"name":"GaugeAircraft_WINGS_comp"},{"source":2,"name":"GaugeAircraft_WINGS_norm"},{"source":3,"name":"GaugeAircraft_FUSELAGE_albd_000"},{"source":4,"name":"GaugeAircraft_FUSELAGE_comp"},{"source":5,"name":"GaugeAircraft_FUSELAGE_norm"},{"source":6,"name":"GaugeAircraft_GLASS_norm"}],"images":[{"uri":"GaugeAircraft_WINGS_albd_000.png"},{"uri":"GaugeAircraft_WINGS_comp.png"},{"uri":"GaugeAircraft_WINGS_norm.png"},{"uri":"GaugeAircraft_FUSELAGE_albd_000.png"},{"uri":"GaugeAircraft_FUSELAGE_comp.png"},{"uri":"GaugeAircraft_FUSELAGE_norm.png"},{"uri":"GaugeAircraft_GLASS_norm.png"}],"animations":[{"channels":[{"sampler":0,"target":{"node":4,"path":"translation"}},{"sampler":1,"target":{"node":4,"path":"rotation"}},{"sampler":2,"target":{"node":4,"path":"scale"}},{"sampler":3,"target":{"node":0,"path":"rotation"}},{"sampler":4,"target":{"node":17,"path":"rotation"}}],"samplers":[{"input":35,"interpolation":"LINEAR","output":36},{"input":37,"interpolation":"LINEAR","output":38},{"input":39,"interpolation":"LINEAR","output":40},{"input":41,"interpolation":"LINEAR","output":42},{"input":43,"interpolation":"LINEAR","output":44}],"name":"c_gear"},{"channels":[{"sampler":0,"target":{"node":6,"path":"rotation"}}],"samplers":[{"input":45,"interpolation":"LINEAR","output":46}],"name":"c_tire_anim"},{"channels":[{"sampler":0,"target":{"node":5,"path":"rotation"}}],"samplers":[{"input":47,"interpolation":"LINEAR","output":48}],"name":"c_wheel"},{"channels":[{"sampler":0,"target":{"node":11,"path":"rotation"}}],"samplers":[{"input":49,"interpolation":"LINEAR","output":50}],"name":"elevator_percent_key"},{"channels":[{"sampler":0,"target":{"node":9,"path":"rotation"}}],"samplers":[{"input":51,"interpolation":"LINEAR","output":52}],"name":"l_aileron_percent_key"},{"channels":[{"sampler":0,"target":{"node":10,"path":"translation"}},{"sampler":1,"target":{"node":10,"path":"rotation"}}],"samplers":[{"input":53,"interpolation":"LINEAR","output":54},{"input":55,"interpolation":"LINEAR","output":56}],"name":"l_flap_percent_key"},{"channels":[{"sampler":0,"target":{"node":7,"path":"rotation"}}],"samplers":[{"input":57,"interpolation":"LINEAR","output":58}],"name":"l_gear"},{"channels":[{"sampler":0,"target":{"node":8,"path":"rotation"}}],"samplers":[{"input":59,"interpolation":"LINEAR","output":60}],"name":"l_tire_anim"},{"channels":[{"sampler":0,"target":{"node":3,"path":"rotation"}}],"samplers":[{"input":61,"interpolation":"LINEAR","output":62}],"name":"prop_anim"},{"channels":[{"sampler":0,"target":{"node":15,"path":"rotation"}}],"samplers":[{"input":63,"interpolation":"LINEAR","output":64}],"name":"r_aileron_percent_key"},{"channels":[{"sampler":0,"target":{"node":16,"path":"translation"}},{"sampler":1,"target":{"node":16,"path":"rotation"}}],"samplers":[{"input":65,"interpolation":"LINEAR","output":66},{"input":67,"interpolation":"LINEAR","output":68}],"name":"r_flap_percent_key"},{"channels":[{"sampler":0,"target":{"node":1,"path":"translation"}},{"sampler":1,"target":{"node":1,"path":"rotation"}},{"sampler":2,"target":{"node":1,"path":"scale"}}],"samplers":[{"input":69,"interpolation":"LINEAR","output":70},{"input":71,"interpolation":"LINEAR","output":72},{"input":73,"interpolation":"LINEAR","output":74}],"name":"r_gear"},{"channels":[{"sampler":0,"target":{"node":2,"path":"rotation"}}],"samplers":[{"input":75,"interpolation":"LINEAR","output":76}],"name":"r_tire_anim"},{"channels":[{"sampler":0,"target":{"node":13,"path":"rotation"}}],"samplers":[{"input":77,"interpolation":"LINEAR","output":78}],"name":"rudder_percent_key"}]}