{"asset":{"version":"2.0","generator":"babylon.js glTF exporter for 3dsmax 2019 v1.5.0","extensions":{"ASOBO_normal_map_convention":{"tangent_space_convention":"DirectX"}}},"extensionsUsed":["ASOBO_normal_map_convention"],"scene":0,"scenes":[{"nodes":[0,1,2],"extensions":{}}],"nodes":[{"mesh":0,"translation":[0.268107,0.232892871,0.629449069],"rotation":[-0.0502717681,0.0,0.0,0.9987356],"scale":[1.0,1.00000012,1.00000012],"name":"pilot"},{"mesh":1,"translation":[-0.0003601443,0.254183382,-0.631366],"rotation":[0.0,0.0,0.0,1.0],"scale":[1.0,1.0,1.0],"name":"Interior"},{"mesh":2,"translation":[-0.00030099976,0.265448958,-0.6313662],"rotation":[0.0,0.0,0.0,1.0],"scale":[1.0,1.0,1.0],"name":"Screens"}],"meshes":[{"primitives":[{"attributes":{"POSITION":1,"NORMAL":2,"TEXCOORD_0":3},"indices":0,"mode":4,"material":0},{"attributes":{"POSITION":5,"NORMAL":6,"TEXCOORD_0":7},"indices":4,"mode":4,"material":1},{"attributes":{"POSITION":9,"NORMAL":10,"TEXCOORD_0":11},"indices":8,"mode":4,"material":2},{"attributes":{"POSITION":13,"NORMAL":14,"TEXCOORD_0":15},"indices":12,"mode":4,"material":3},{"attributes":{"POSITION":17,"NORMAL":18,"TEXCOORD_0":19},"indices":16,"mode":4,"material":4},{"attributes":{"POSITION":21,"NORMAL":22,"TEXCOORD_0":23},"indices":20,"mode":4,"material":5},{"attributes":{"POSITION":25,"NORMAL":26,"TEXCOORD_0":27},"indices":24,"mode":4,"material":6},{"attributes":{"POSITION":29,"NORMAL":30,"TEXCOORD_0":31},"indices":28,"mode":4,"material":7}],"name":"x1_pilot"},{"primitives":[{"attributes":{"POSITION":33,"NORMAL":34,"TEXCOORD_0":35,"TEXCOORD_1":36},"indices":32,"mode":4,"material":8}],"name":"x1_Interior"},{"primitives":[{"attributes":{"POSITION":38,"NORMAL":39,"TEXCOORD_0":40,"TEXCOORD_1":41},"indices":37,"mode":4,"material":9},{"attributes":{"POSITION":43,"NORMAL":44,"TEXCOORD_0":45,"TEXCOORD_1":46},"indices":42,"mode":4,"material":10},{"attributes":{"POSITION":48,"NORMAL":49,"TEXCOORD_0":50,"TEXCOORD_1":51},"indices":47,"mode":4,"material":11}],"name":"x1_Screens"}],"accessors":[{"bufferView":0,"componentType":5123,"count":1551,"type":"SCALAR","name":"accessorIndices"},{"bufferView":1,"componentType":5126,"count":411,"max":[0.286221772,0.35861963,0.0172436237],"min":[-0.3153381,-0.360990733,-0.639620066],"type":"VEC3","name":"accessorPositions"},{"bufferView":1,"byteOffset":4932,"componentType":5126,"count":411,"type":"VEC3","name":"accessorNormals"},{"bufferView":2,"componentType":5126,"count":411,"type":"VEC2","name":"accessorUVs"},{"bufferView":0,"byteOffset":3104,"componentType":5123,"count":282,"type":"SCALAR","name":"accessorIndices"},{"bufferView":1,"byteOffset":9864,"componentType":5126,"count":111,"max":[0.09089959,0.595122755,-0.228520632],"min":[-0.0924993455,0.44020915,-0.546834469],"type":"VEC3","name":"accessorPositions"},{"bufferView":1,"byteOffset":11196,"componentType":5126,"count":111,"type":"VEC3","name":"accessorNormals"},{"bufferView":2,"byteOffset":3288,"componentType":5126,"count":111,"type":"VEC2","name":"accessorUVs"},{"bufferView":0,"byteOffset":3668,"componentType":5123,"count":435,"type":"SCALAR","name":"accessorIndices"},{"bufferView":1,"byteOffset":12528,"componentType":5126,"count":99,"max":[0.109033555,0.5758467,-0.289201736],"min":[-0.09991014,0.13085103,-0.558761358],"type":"VEC3","name":"accessorPositions"},{"bufferView":1,"byteOffset":13716,"componentType":5126,"count":99,"type":"VEC3","name":"accessorNormals"},{"bufferView":2,"byteOffset":4176,"componentType":5126,"count":99,"type":"VEC2","name":"accessorUVs"},{"bufferView":0,"byteOffset":4540,"componentType":5123,"count":66,"type":"SCALAR","name":"accessorIndices"},{"bufferView":1,"byteOffset":14904,"componentType":5126,"count":17,"max":[0.04334089,0.463678718,-0.323921919],"min":[-0.0395759344,0.434062243,-0.3508289],"type":"VEC3","name":"accessorPositions"},{"bufferView":1,"byteOffset":15108,"componentType":5126,"count":17,"type":"VEC3","name":"accessorNormals"},{"bufferView":2,"byteOffset":4968,"componentType":5126,"count":17,"type":"VEC2","name":"accessorUVs"},{"bufferView":0,"byteOffset":4672,"componentType":5123,"count":111,"type":"SCALAR","name":"accessorIndices"},{"bufferView":1,"byteOffset":15312,"componentType":5126,"count":79,"max":[0.09138659,0.5311438,-0.3443241],"min":[-0.09077442,0.392899275,-0.5460093],"type":"VEC3","name":"accessorPositions"},{"bufferView":1,"byteOffset":16260,"componentType":5126,"count":79,"type":"VEC3","name":"accessorNormals"},{"bufferView":2,"byteOffset":5104,"componentType":5126,"count":79,"type":"VEC2","name":"accessorUVs"},{"bufferView":0,"byteOffset":4896,"componentType":5123,"count":504,"type":"SCALAR","name":"accessorIndices"},{"bufferView":1,"byteOffset":17208,"componentType":5126,"count":234,"max":[0.216507286,0.07755816,0.127159357],"min":[-0.22752817,-0.03572169,-0.05650568],"type":"VEC3","name":"accessorPositions"},{"bufferView":1,"byteOffset":20016,"componentType":5126,"count":234,"type":"VEC3","name":"accessorNormals"},{"bufferView":2,"byteOffset":5736,"componentType":5126,"count":234,"type":"VEC2","name":"accessorUVs"},{"bufferView":0,"byteOffset":5904,"componentType":5123,"count":348,"type":"SCALAR","name":"accessorIndices"},{"bufferView":1,"byteOffset":22824,"componentType":5126,"count":102,"max":[0.137383491,0.6062469,-0.26305294],"min":[-0.1269955,0.321718037,-0.480026245],"type":"VEC3","name":"accessorPositions"},{"bufferView":1,"byteOffset":24048,"componentType":5126,"count":102,"type":"VEC3","name":"accessorNormals"},{"bufferView":2,"byteOffset":7608,"componentType":5126,"count":102,"type":"VEC2","name":"accessorUVs"},{"bufferView":0,"byteOffset":6600,"componentType":5123,"count":255,"type":"SCALAR","name":"accessorIndices"},{"bufferView":1,"byteOffset":25272,"componentType":5126,"count":73,"max":[0.191344708,-0.161437362,0.234958172],"min":[-0.187095568,-0.4635036,-0.548012853],"type":"VEC3","name":"accessorPositions"},{"bufferView":1,"byteOffset":26148,"componentType":5126,"count":73,"type":"VEC3","name":"accessorNormals"},{"bufferView":2,"byteOffset":8424,"componentType":5126,"count":73,"type":"VEC2","name":"accessorUVs"},{"bufferView":0,"byteOffset":7112,"componentType":5123,"count":3948,"type":"SCALAR","name":"accessorIndices"},{"bufferView":1,"byteOffset":27024,"componentType":5126,"count":3948,"max":[0.6014959,0.6836878,1.84829819],"min":[-0.6014959,-0.679974854,-1.84829807],"type":"VEC3","name":"accessorPositions"},{"bufferView":1,"byteOffset":74400,"componentType":5126,"count":3948,"type":"VEC3","name":"accessorNormals"},{"bufferView":2,"byteOffset":9008,"componentType":5126,"count":3948,"type":"VEC2","name":"accessorUVs"},{"bufferView":2,"byteOffset":40592,"componentType":5126,"count":3948,"type":"VEC2","name":"accessorUV2s"},{"bufferView":0,"byteOffset":15008,"componentType":5123,"count":6,"type":"SCALAR","name":"accessorIndices"},{"bufferView":1,"byteOffset":121776,"componentType":5126,"count":6,"max":[0.3587584,0.229088753,1.51594257],"min":[0.156535909,0.06992012,1.49639189],"type":"VEC3","name":"accessorPositions"},{"bufferView":1,"byteOffset":121848,"componentType":5126,"count":6,"type":"VEC3","name":"accessorNormals"},{"bufferView":2,"byteOffset":72176,"componentType":5126,"count":6,"type":"VEC2","name":"accessorUVs"},{"bufferView":2,"byteOffset":72224,"componentType":5126,"count":6,"type":"VEC2","name":"accessorUV2s"},{"bufferView":0,"byteOffset":15020,"componentType":5123,"count":6,"type":"SCALAR","name":"accessorIndices"},{"bufferView":1,"byteOffset":121920,"componentType":5126,"count":6,"max":[0.103063971,0.229088753,1.51594257],"min":[-0.09915854,0.06992012,1.49639189],"type":"VEC3","name":"accessorPositions"},{"bufferView":1,"byteOffset":121992,"componentType":5126,"count":6,"type":"VEC3","name":"accessorNormals"},{"bufferView":2,"byteOffset":72272,"componentType":5126,"count":6,"type":"VEC2","name":"accessorUVs"},{"bufferView":2,"byteOffset":72320,"componentType":5126,"count":6,"type":"VEC2","name":"accessorUV2s"},{"bufferView":0,"byteOffset":15032,"componentType":5123,"count":6,"type":"SCALAR","name":"accessorIndices"},{"bufferView":1,"byteOffset":122064,"componentType":5126,"count":6,"max":[-0.155030042,0.229088753,1.51594257],"min":[-0.357252568,0.06992012,1.49639189],"type":"VEC3","name":"accessorPositions"},{"bufferView":1,"byteOffset":122136,"componentType":5126,"count":6,"type":"VEC3","name":"accessorNormals"},{"bufferView":2,"byteOffset":72368,"componentType":5126,"count":6,"type":"VEC2","name":"accessorUVs"},{"bufferView":2,"byteOffset":72416,"componentType":5126,"count":6,"type":"VEC2","name":"accessorUV2s"},{"bufferView":3,"componentType":5126,"count":2,"max":[6.7],"min":[0.0],"type":"SCALAR","name":"accessorAnimationInput"},{"bufferView":4,"componentType":5126,"count":2,"type":"VEC3","name":"accessorAnimationScales"},{"bufferView":3,"byteOffset":8,"componentType":5126,"count":2,"max":[6.7],"min":[0.0],"type":"SCALAR","name":"accessorAnimationInput"},{"bufferView":4,"byteOffset":24,"componentType":5126,"count":2,"type":"VEC3","name":"accessorAnimationScales"},{"bufferView":3,"byteOffset":16,"componentType":5126,"count":2,"max":[6.7],"min":[0.0],"type":"SCALAR","name":"accessorAnimationInput"},{"bufferView":4,"byteOffset":48,"componentType":5126,"count":2,"type":"VEC3","name":"accessorAnimationScales"}],"bufferViews":[{"buffer":0,"byteLength":15044,"name":"bufferViewScalar"},{"buffer":0,"byteOffset":15044,"byteLength":122208,"byteStride":12,"name":"bufferViewFloatVec3"},{"buffer":0,"byteOffset":137252,"byteLength":72464,"byteStride":8,"name":"bufferViewFloatVec2"},{"buffer":0,"byteOffset":209716,"byteLength":24,"name":"bufferViewAnimationFloatScalar"},{"buffer":0,"byteOffset":209740,"byteLength":72,"name":"bufferViewAnimationFloatVec3"}],"buffers":[{"uri":"GaugeAircraft_Interior_LOD01.bin","byteLength":209812}],"materials":[{"pbrMetallicRoughness":{"baseColorTexture":{"index":0},"metallicRoughnessTexture":{"index":1}},"normalTexture":{"index":2},"occlusionTexture":{"index":1},"name":"Jacket"},{"pbrMetallicRoughness":{"baseColorTexture":{"index":3},"metallicRoughnessTexture":{"index":4}},"normalTexture":{"index":5},"occlusionTexture":{"index":4},"name":"Cap"},{"pbrMetallicRoughness":{"baseColorTexture":{"index":6},"metallicRoughnessTexture":{"index":7}},"normalTexture":{"index":8},"occlusionTexture":{"index":7},"name":"Head"},{"pbrMetallicRoughness":{"baseColorTexture":{"index":9},"metallicRoughnessTexture":{"index":10}},"normalTexture":{"index":11},"occlusionTexture":{"index":10},"name":"Eye"},{"pbrMetallicRoughness":{"baseColorTexture":{"index":12},"metallicRoughnessTexture":{"index":13}},"normalTexture":{"index":14},"occlusionTexture":{"index":13},"alphaMode":"BLEND","doubleSided":true,"name":"Hair"},{"pbrMetallicRoughness":{"baseColorTexture":{"index":15},"metallicRoughnessTexture":{"index":16}},"normalTexture":{"index":17},"occlusionTexture":{"index":16},"name":"Arms_Caucasian"},{"pbrMetallicRoughness":{"baseColorTexture":{"index":18},"metallicRoughnessTexture":{"index":19}},"normalTexture":{"index":20},"occlusionTexture":{"index":19},"name":"CASQUE"},{"pbrMetallicRoughness":{"baseColorTexture":{"index":21},"metallicRoughnessTexture":{"index":22}},"normalTexture":{"index":23},"occlusionTexture":{"index":22},"name":"Pants"},{"pbrMetallicRoughness":{"baseColorTexture":{"index":24},"metallicRoughnessTexture":{"index":25}},"normalTexture":{"index":26},"occlusionTexture":{"index":25},"name":"COCKPIT"},{"emissiveFactor":[1.0,1.0,1.0],"name":"$SCREEN_1"},{"emissiveFactor":[1.0,1.0,1.0],"name":"$SCREEN_2"},{"emissiveFactor":[1.0,1.0,1.0],"name":"$SCREEN_3"}],"textures":[{"source":0,"name":"Pilot_JACKET_albd"},{"source":1,"name":"Pilot_JACKET_comp"},{"source":2,"name":"Pilot_JACKET_norm"},{"source":3,"name":"Pilot_CAP_albd"},{"source":4,"name":"Pilot_CAP_comp"},{"source":5,"name":"Pilot_CAP_norm"},{"source":6,"name":"Pilot_HEAD_albd"},{"source":7,"name":"Pilot_HEAD_comp"},{"source":8,"name":"Pilot_HEAD_norm"},{"source":9,"name":"Pilot_EYES_albd"},{"source":10,"name":"Pilot_EYES_comp"},{"source":11,"name":"Pilot_EYES_norm"},{"source":12,"name":"Pilot_HAIRCARDS_albd"},{"source":13,"name":"Pilot_HAIRCARDS_comp"},{"source":14,"name":"Pilot_HAIRCARDS_norm"},{"source":15,"name":"Pilot_ARMS_albd"},{"source":16,"name":"Pilot_ARMS_comp"},{"source":17,"name":"Pilot_ARMS_norm"},{"source":18,"name":"Pilot_HEADSET_albd"},{"source":19,"name":"Pilot_HEADSET_comp"},{"source":20,"name":"Pilot_HEADSET_norm"},{"source":21,"name":"Pilot_PANTS_albd"},{"source":22,"name":"Pilot_PANTS_comp"},{"source":23,"name":"Pilot_PANTS_norm"},{"source":24,"name":"GaugeAircraft_COCKPIT_albd"},{"source":25,"name":"GaugeAircraft_COCKPIT_comp"},{"source":26,"name":"GaugeAircraft_COCKPIT_norm"}],"images":[{"uri":"Pilot_JACKET_albd.png"},{"uri":"Pilot_JACKET_comp.png"},{"uri":"Pilot_JACKET_norm.png"},{"uri":"Pilot_CAP_albd.png"},{"uri":"Pilot_CAP_comp.png"},{"uri":"Pilot_CAP_norm.png"},{"uri":"Pilot_HEAD_albd.png"},{"uri":"Pilot_HEAD_comp.png"},{"uri":"Pilot_HEAD_norm.png"},{"uri":"Pilot_EYES_albd.png"},{"uri":"Pilot_EYES_comp.png"},{"uri":"Pilot_EYES_norm.png"},{"uri":"Pilot_HAIRCARDS_albd.png"},{"uri":"Pilot_HAIRCARDS_comp.png"},{"uri":"Pilot_HAIRCARDS_norm.png"},{"uri":"Pilot_ARMS_albd.png"},{"uri":"Pilot_ARMS_comp.png"},{"uri":"Pilot_ARMS_norm.png"},{"uri":"Pilot_HEADSET_albd.png"},{"uri":"Pilot_HEADSET_comp.png"},{"uri":"Pilot_HEADSET_norm.png"},{"uri":"Pilot_PANTS_albd.png"},{"uri":"Pilot_PANTS_comp.png"},{"uri":"Pilot_PANTS_norm.png"},{"uri":"GaugeAircraft_COCKPIT_albd.png"},{"uri":"GaugeAircraft_COCKPIT_comp.png"},{"uri":"GaugeAircraft_COCKPIT_norm.png"}],"animations":[{"channels":[{"sampler":0,"target":{"node":0,"path":"scale"}},{"sampler":1,"target":{"node":1,"path":"scale"}},{"sampler":2,"target":{"node":2,"path":"scale"}}],"samplers":[{"input":52,"interpolation":"LINEAR","output":53},{"input":54,"interpolation":"LINEAR","output":55},{"input":56,"interpolation":"LINEAR","output":57}],"name":"All Animations"}]}