{"asset":{"version":"2.0","generator":"babylon.js glTF exporter for 3dsmax 2019 v1.5.0","extensions":{"ASOBO_normal_map_convention":{"tangent_space_convention":"DirectX"}}},"extensionsUsed":["ASOBO_normal_map_convention"],"scene":0,"scenes":[{"nodes":[0,1],"extensions":{}}],"nodes":[{"mesh":0,"translation":[-0.00030099976,0.265448958,-0.6313662],"rotation":[0.0,0.0,0.0,1.0],"scale":[1.0,1.0,1.0],"name":"Interior"},{"mesh":1,"translation":[-0.00030099976,0.265448958,-0.6313662],"rotation":[0.0,0.0,0.0,1.0],"scale":[1.0,1.0,1.0],"name":"Screens"}],"meshes":[{"primitives":[{"attributes":{"POSITION":1,"NORMAL":2,"TEXCOORD_0":3,"TEXCOORD_1":4},"indices":0,"mode":4,"material":0}],"name":"x0_Interior"},{"primitives":[{"attributes":{"POSITION":6,"NORMAL":7,"TEXCOORD_0":8,"TEXCOORD_1":9},"indices":5,"mode":4,"material":1},{"attributes":{"POSITION":11,"NORMAL":12,"TEXCOORD_0":13,"TEXCOORD_1":14},"indices":10,"mode":4,"material":2},{"attributes":{"POSITION":16,"NORMAL":17,"TEXCOORD_0":18,"TEXCOORD_1":19},"indices":15,"mode":4,"material":3}],"name":"x0_Screens"}],"accessors":[{"bufferView":0,"componentType":5123,"count":24186,"type":"SCALAR","name":"accessorIndices"},{"bufferView":1,"componentType":5126,"count":24186,"max":[0.6318649,0.7000691,1.84829831],"min":[-0.6318649,-0.694951653,-1.84829831],"type":"VEC3","name":"accessorPositions"},{"bufferView":1,"byteOffset":290232,"componentType":5126,"count":24186,"type":"VEC3","name":"accessorNormals"},{"bufferView":2,"componentType":5126,"count":24186,"type":"VEC2","name":"accessorUVs"},{"bufferView":2,"byteOffset":193488,"componentType":5126,"count":24186,"type":"VEC2","name":"accessorUV2s"},{"bufferView":0,"byteOffset":48372,"componentType":5123,"count":6,"type":"SCALAR","name":"accessorIndices"},{"bufferView":1,"byteOffset":580464,"componentType":5126,"count":6,"max":[0.3587584,0.229088753,1.51594257],"min":[0.156535909,0.06992012,1.49639189],"type":"VEC3","name":"accessorPositions"},{"bufferView":1,"byteOffset":580536,"componentType":5126,"count":6,"type":"VEC3","name":"accessorNormals"},{"bufferView":2,"byteOffset":386976,"componentType":5126,"count":6,"type":"VEC2","name":"accessorUVs"},{"bufferView":2,"byteOffset":387024,"componentType":5126,"count":6,"type":"VEC2","name":"accessorUV2s"},{"bufferView":0,"byteOffset":48384,"componentType":5123,"count":6,"type":"SCALAR","name":"accessorIndices"},{"bufferView":1,"byteOffset":580608,"componentType":5126,"count":6,"max":[0.103063971,0.229088753,1.51594257],"min":[-0.09915854,0.06992012,1.49639189],"type":"VEC3","name":"accessorPositions"},{"bufferView":1,"byteOffset":580680,"componentType":5126,"count":6,"type":"VEC3","name":"accessorNormals"},{"bufferView":2,"byteOffset":387072,"componentType":5126,"count":6,"type":"VEC2","name":"accessorUVs"},{"bufferView":2,"byteOffset":387120,"componentType":5126,"count":6,"type":"VEC2","name":"accessorUV2s"},{"bufferView":0,"byteOffset":48396,"componentType":5123,"count":6,"type":"SCALAR","name":"accessorIndices"},{"bufferView":1,"byteOffset":580752,"componentType":5126,"count":6,"max":[-0.155030042,0.229088753,1.51594257],"min":[-0.357252568,0.06992012,1.49639189],"type":"VEC3","name":"accessorPositions"},{"bufferView":1,"byteOffset":580824,"componentType":5126,"count":6,"type":"VEC3","name":"accessorNormals"},{"bufferView":2,"byteOffset":387168,"componentType":5126,"count":6,"type":"VEC2","name":"accessorUVs"},{"bufferView":2,"byteOffset":387216,"componentType":5126,"count":6,"type":"VEC2","name":"accessorUV2s"},{"bufferView":3,"componentType":5126,"count":2,"max":[6.7],"min":[0.0],"type":"SCALAR","name":"accessorAnimationInput"},{"bufferView":4,"componentType":5126,"count":2,"type":"VEC3","name":"accessorAnimationScales"},{"bufferView":3,"byteOffset":8,"componentType":5126,"count":2,"max":[6.7],"min":[0.0],"type":"SCALAR","name":"accessorAnimationInput"},{"bufferView":4,"byteOffset":24,"componentType":5126,"count":2,"type":"VEC3","name":"accessorAnimationScales"}],"bufferViews":[{"buffer":0,"byteLength":48408,"name":"bufferViewScalar"},{"buffer":0,"byteOffset":48408,"byteLength":580896,"byteStride":12,"name":"bufferViewFloatVec3"},{"buffer":0,"byteOffset":629304,"byteLength":387264,"byteStride":8,"name":"bufferViewFloatVec2"},{"buffer":0,"byteOffset":1016568,"byteLength":16,"name":"bufferViewAnimationFloatScalar"},{"buffer":0,"byteOffset":1016584,"byteLength":48,"name":"bufferViewAnimationFloatVec3"}],"buffers":[{"uri":"GaugeAircraft_Interior_LOD00.bin","byteLength":1016632}],"materials":[{"pbrMetallicRoughness":{"baseColorTexture":{"index":0},"metallicRoughnessTexture":{"index":1}},"normalTexture":{"index":2},"occlusionTexture":{"index":1},"name":"COCKPIT"},{"emissiveFactor":[1.0,1.0,1.0],"name":"$SCREEN_1"},{"emissiveFactor":[1.0,1.0,1.0],"name":"$SCREEN_2"},{"emissiveFactor":[1.0,1.0,1.0],"name":"$SCREEN_3"}],"textures":[{"source":0,"name":"GaugeAircraft_COCKPIT_albd"},{"source":1,"name":"GaugeAircraft_COCKPIT_comp"},{"source":2,"name":"GaugeAircraft_COCKPIT_norm"}],"images":[{"uri":"GaugeAircraft_COCKPIT_albd.png"},{"uri":"GaugeAircraft_COCKPIT_comp.png"},{"uri":"GaugeAircraft_COCKPIT_norm.png"}],"animations":[{"channels":[{"sampler":0,"target":{"node":0,"path":"scale"}},{"sampler":1,"target":{"node":1,"path":"scale"}}],"samplers":[{"input":20,"interpolation":"LINEAR","output":21},{"input":22,"interpolation":"LINEAR","output":23}],"name":"All Animations"}]}